<svg xmlns="http://www.w3.org/2000/svg" xmlns:xlink="http://www.w3.org/1999/xlink" width="500" zoomAndPan="magnify" viewBox="0 0 375 374.999991" height="500" preserveAspectRatio="xMidYMid meet" version="1.0"><defs><clipPath id="e8f1a378b5"><path d="M 48.710938 110 L 326.210938 110 L 326.210938 276.507812 L 48.710938 276.507812 Z M 48.710938 110 " clip-rule="nonzero"/></clipPath></defs><g clip-path="url(#e8f1a378b5)"><path fill="#365162" d="M 239.980469 156.375 C 241.011719 156.941406 242.109375 157.167969 243.226562 157.167969 C 246.089844 157.167969 249.0625 155.675781 251.238281 154.585938 L 252.953125 153.738281 C 254.796875 152.835938 256.699219 151.902344 258.542969 150.863281 C 260.675781 149.660156 262.742188 148.328125 264.742188 147.035156 L 265.871094 146.308594 C 266.195312 146.101562 266.566406 145.878906 266.96875 145.636719 C 270.105469 143.742188 275.359375 140.570312 273.875 135.628906 C 273.121094 133.125 270.945312 131.429688 268.199219 131.210938 C 265.417969 130.992188 262.867188 132.382812 261.71875 134.757812 L 261.59375 135.019531 C 261.171875 135.898438 261.171875 135.898438 259.957031 136.65625 C 256.144531 139.03125 252.042969 140.863281 247.761719 142.101562 L 246.867188 142.355469 C 244.371094 143.054688 241.542969 143.847656 239.425781 145.914062 C 237.820312 147.460938 236.933594 149.996094 237.226562 152.230469 C 237.464844 154.054688 238.445312 155.53125 239.980469 156.375 Z M 242.15625 148.75 C 242.160156 148.746094 242.167969 148.738281 242.171875 148.734375 C 243.566406 147.367188 245.6875 146.773438 247.929688 146.140625 L 248.851562 145.878906 C 253.484375 144.542969 257.917969 142.5625 262.035156 139.992188 C 263.976562 138.785156 264.324219 138.417969 265.140625 136.722656 L 265.261719 136.46875 C 265.746094 135.46875 266.800781 135.125 267.648438 135.125 C 267.730469 135.125 267.808594 135.128906 267.886719 135.132812 C 268.300781 135.167969 269.691406 135.382812 270.105469 136.761719 C 270.664062 138.621094 267.855469 140.5 264.933594 142.261719 C 264.496094 142.527344 264.09375 142.769531 263.742188 142.996094 L 262.609375 143.726562 C 260.65625 144.988281 258.636719 146.289062 256.605469 147.4375 C 254.867188 148.417969 253.015625 149.324219 251.222656 150.203125 L 249.472656 151.066406 C 247.324219 152.144531 243.730469 153.945312 241.878906 152.929688 C 241.722656 152.84375 241.242188 152.578125 241.128906 151.714844 C 240.996094 150.710938 241.4375 149.4375 242.15625 148.75 Z M 305.445312 175.339844 C 302.785156 174.011719 299.605469 176.839844 296.800781 179.34375 L 281.558594 192.707031 C 280.777344 193.394531 279.148438 194.820312 279.3125 196.953125 C 279.394531 197.980469 279.863281 198.878906 280.671875 199.550781 C 281.925781 200.597656 283.621094 200.792969 284.707031 200.792969 C 285.089844 200.792969 285.394531 200.769531 285.582031 200.746094 C 291.050781 200.171875 296.335938 198.328125 299.710938 195.8125 C 304.410156 192.316406 306.984375 185.625 307.386719 180.886719 C 307.480469 179.800781 307.761719 176.5 305.445312 175.339844 Z M 303.464844 180.550781 C 303.125 184.5625 300.917969 190.007812 297.363281 192.652344 C 294.523438 194.765625 289.96875 196.328125 285.171875 196.832031 C 284.304688 196.921875 283.566406 196.746094 283.28125 196.585938 C 283.363281 196.445312 283.578125 196.167969 284.152344 195.667969 L 298.734375 182.886719 L 299.417969 182.28125 C 300.269531 181.519531 302.324219 179.691406 303.488281 179.113281 C 303.515625 179.417969 303.523438 179.878906 303.464844 180.550781 Z M 237.375 184.042969 C 235.179688 182.382812 232.476562 181.792969 229.886719 181.40625 C 226.027344 180.828125 220.433594 180.433594 216.417969 183.65625 C 214.015625 185.582031 212.75 189.1875 213.40625 192.230469 C 213.640625 193.3125 214.457031 194.019531 215 194.484375 C 215.078125 194.550781 215.148438 194.613281 215.214844 194.671875 C 216.570312 195.9375 217.90625 196.839844 219.304688 197.433594 C 220.550781 197.964844 221.859375 198.230469 223.125 198.230469 C 224.496094 198.230469 225.820312 197.917969 226.957031 197.292969 C 227.894531 196.777344 228.65625 196.09375 229.328125 195.488281 C 229.945312 194.929688 230.53125 194.402344 231.125 194.125 C 231.757812 193.832031 232.59375 193.738281 233.480469 193.636719 L 234.027344 193.574219 C 235.445312 193.394531 237.066406 193.066406 238.382812 191.945312 C 239.636719 190.882812 240.28125 189.207031 240.023438 187.679688 C 239.816406 186.433594 238.925781 185.207031 237.375 184.042969 Z M 235.835938 188.945312 C 235.308594 189.394531 234.378906 189.5625 233.542969 189.664062 L 233.035156 189.726562 C 231.929688 189.851562 230.683594 189.996094 229.472656 190.554688 C 228.335938 191.078125 227.460938 191.867188 226.691406 192.566406 C 226.128906 193.070312 225.601562 193.546875 225.066406 193.839844 C 223.945312 194.453125 222.332031 194.441406 220.847656 193.8125 C 219.878906 193.398438 218.914062 192.738281 217.898438 191.792969 C 217.800781 191.703125 217.691406 191.605469 217.570312 191.503906 C 217.46875 191.417969 217.316406 191.285156 217.214844 191.183594 C 216.980469 189.632812 217.699219 187.675781 218.882812 186.726562 C 221.660156 184.496094 225.910156 184.792969 229.304688 185.300781 C 231.242188 185.589844 233.4375 185.996094 235.007812 187.183594 C 235.824219 187.800781 236.113281 188.253906 236.144531 188.332031 C 236.164062 188.460938 236.058594 188.757812 235.835938 188.945312 Z M 326.152344 119.59375 C 326.148438 119.507812 326.144531 119.421875 326.128906 119.335938 C 326.117188 119.273438 326.09375 119.21875 326.078125 119.160156 C 326.058594 119.09375 326.042969 119.03125 326.019531 118.96875 C 325.992188 118.90625 325.957031 118.847656 325.925781 118.789062 C 325.898438 118.738281 325.875 118.679688 325.839844 118.628906 C 325.792969 118.558594 325.738281 118.496094 325.683594 118.4375 C 325.65625 118.402344 325.632812 118.363281 325.601562 118.332031 C 325.105469 117.828125 324.585938 117.339844 324.015625 116.839844 C 317.972656 111.535156 310.515625 109.289062 304.058594 110.839844 C 292.8125 113.539062 287.738281 125.832031 283.664062 135.710938 L 283.324219 136.539062 C 280.871094 142.488281 277.332031 150.101562 271.71875 156.242188 C 266.191406 162.273438 259.402344 165.929688 252.609375 166.527344 C 248.726562 166.867188 244.570312 166.238281 240.554688 165.628906 C 234 164.640625 227.21875 163.613281 220.9375 166.523438 C 214.628906 169.441406 210.796875 175.4375 207.089844 181.238281 C 203.132812 187.425781 199.394531 193.269531 193.101562 194.730469 C 187.285156 196.078125 181.257812 192.910156 177.230469 190.003906 C 175.429688 188.707031 173.660156 187.242188 171.945312 185.824219 C 168.859375 183.269531 165.664062 180.628906 161.996094 178.664062 C 156.421875 175.675781 148.277344 174.0625 142.136719 178.515625 C 140.558594 179.65625 139.308594 181.074219 138.101562 182.445312 C 136.734375 183.996094 135.445312 185.460938 133.847656 186.332031 C 129.230469 188.847656 123.292969 185.777344 120.953125 184.34375 C 119.625 183.527344 118.292969 182.597656 117.003906 181.695312 C 113.941406 179.554688 110.773438 177.335938 107.011719 176.171875 C 105.140625 175.59375 103.234375 175.316406 101.394531 175.050781 C 99.390625 174.757812 97.496094 174.480469 95.742188 173.847656 C 90.15625 171.832031 86.738281 166.617188 83.117188 161.097656 C 80.84375 157.628906 78.496094 154.046875 75.496094 151.128906 C 69.289062 145.085938 59.679688 142.445312 50.417969 144.238281 C 50.414062 144.238281 50.410156 144.242188 50.410156 144.242188 C 50.304688 144.261719 50.207031 144.296875 50.109375 144.332031 C 50.082031 144.339844 50.054688 144.34375 50.03125 144.355469 C 49.945312 144.390625 49.863281 144.441406 49.78125 144.488281 C 49.753906 144.507812 49.71875 144.519531 49.691406 144.539062 C 49.617188 144.585938 49.554688 144.648438 49.488281 144.707031 C 49.460938 144.730469 49.425781 144.75 49.398438 144.777344 C 49.179688 145 49.019531 145.273438 48.921875 145.578125 C 48.902344 145.640625 48.878906 145.703125 48.863281 145.769531 C 48.855469 145.808594 48.855469 145.851562 48.851562 145.890625 C 48.835938 145.980469 48.824219 146.070312 48.824219 146.160156 C 48.824219 146.167969 48.824219 146.167969 48.824219 146.171875 L 48.824219 274.375 C 48.824219 275.460938 49.703125 276.34375 50.792969 276.34375 L 324.199219 276.34375 C 325.285156 276.34375 326.167969 275.460938 326.167969 274.375 L 326.167969 119.714844 C 326.167969 119.671875 326.15625 119.632812 326.152344 119.59375 Z M 52.761719 171.296875 C 57.878906 170.996094 63.542969 172.15625 68.574219 174.59375 C 76.898438 178.621094 83.796875 185.394531 90.472656 191.949219 C 91.175781 192.636719 91.878906 193.328125 92.582031 194.011719 C 99.855469 201.109375 108.511719 208.957031 119.21875 212.222656 C 123.980469 213.675781 128.980469 214.171875 133.972656 214.171875 C 135.8125 214.171875 137.652344 214.101562 139.480469 213.988281 C 130.460938 218.132812 121.71875 221.277344 112.535156 219.386719 C 102.699219 217.363281 94.898438 209.824219 87.355469 202.535156 L 86.550781 201.761719 C 78.039062 193.542969 68.601562 185.855469 57.300781 185.238281 C 55.800781 185.15625 54.28125 185.277344 52.761719 185.5625 Z M 52.761719 203.597656 C 60.726562 203.019531 68.789062 205.492188 74.613281 210.375 C 75.714844 211.300781 75.84375 211.855469 75.824219 211.949219 C 75.609375 212.132812 74.425781 212.253906 72.679688 211.707031 C 66.367188 209.707031 59.523438 208.832031 52.761719 209.132812 Z M 52.761719 272.40625 L 52.761719 255.5625 C 58.21875 256.679688 63.171875 260.003906 67.964844 263.222656 L 69.195312 264.050781 C 74.636719 267.695312 81.050781 271.589844 88.332031 271.722656 C 96.292969 271.851562 102.976562 267.566406 109.433594 263.414062 C 114.132812 260.386719 118.992188 257.257812 124.195312 256.015625 C 137.847656 252.75 151.007812 262.089844 163.320312 271.9375 C 163.523438 272.101562 163.714844 272.25 163.914062 272.40625 Z M 284.855469 272.40625 C 289.132812 270.140625 293.863281 268.792969 298.632812 268.539062 C 304.589844 268.214844 310.660156 269.601562 315.980469 272.40625 Z M 322.230469 271.660156 C 315.375 266.710938 306.808594 264.148438 298.421875 264.605469 C 290.980469 265.007812 283.621094 267.773438 277.617188 272.40625 L 170.363281 272.40625 C 168.988281 271.382812 167.515625 270.25 165.777344 268.859375 C 153.277344 258.867188 138.65625 248.515625 123.28125 252.1875 C 117.429688 253.585938 112.28125 256.898438 107.300781 260.101562 C 101.164062 264.050781 95.359375 267.789062 88.722656 267.789062 C 88.613281 267.789062 88.507812 267.785156 88.402344 267.785156 C 82.1875 267.671875 76.363281 264.109375 71.386719 260.78125 L 70.160156 259.957031 C 64.929688 256.441406 59.523438 252.804688 53.117188 251.613281 C 53 251.59375 52.878906 251.578125 52.761719 251.5625 L 52.761719 223.960938 C 54.816406 224.34375 56.835938 225.015625 58.695312 225.933594 C 62.042969 227.597656 65.066406 229.769531 68.265625 232.070312 C 71.960938 234.726562 75.777344 237.46875 80.113281 239.332031 C 88.332031 242.859375 97.367188 243.136719 108.546875 240.195312 C 108.578125 240.1875 108.605469 240.183594 108.636719 240.175781 C 114.386719 238.65625 120.277344 236.40625 125.828125 234.226562 C 145.296875 231.269531 166.976562 238.738281 183.773438 245.617188 C 202.011719 253.082031 222.007812 261.269531 241.441406 261.269531 C 248.878906 261.269531 256.242188 260.070312 263.382812 257.167969 C 266.691406 255.828125 269.863281 254.140625 272.929688 252.503906 C 277.808594 249.90625 282.414062 247.453125 287.507812 246.285156 C 300.179688 243.367188 312.621094 249.097656 322.230469 254.6875 Z M 322.230469 250.152344 C 312.277344 244.589844 299.738281 239.429688 286.625 242.445312 C 281.027344 243.734375 275.96875 246.425781 271.082031 249.03125 C 268.101562 250.617188 265.019531 252.257812 261.90625 253.523438 C 237.582031 263.390625 209.789062 252.011719 185.195312 241.945312 C 171.433594 236.304688 154.375 230.269531 137.636719 229.675781 C 147.460938 226.128906 157.417969 223.507812 167.171875 224.914062 C 175.636719 226.136719 183.726562 230.414062 191.550781 234.550781 C 200.960938 239.527344 210.660156 244.660156 221.277344 244.660156 C 222.457031 244.660156 223.644531 244.59375 224.847656 244.460938 C 234.898438 243.351562 243.277344 237.535156 251.378906 231.910156 C 254.421875 229.792969 257.570312 227.609375 260.726562 225.738281 C 270.960938 219.679688 282.675781 216.203125 294.003906 212.839844 C 301.828125 210.519531 310.695312 207.890625 319.242188 208.746094 C 320.234375 208.847656 321.234375 209.011719 322.230469 209.234375 Z M 322.230469 205.210938 C 321.363281 205.042969 320.496094 204.917969 319.632812 204.832031 C 310.328125 203.894531 301.058594 206.644531 292.878906 209.066406 C 281.324219 212.5 269.375 216.046875 258.71875 222.351562 C 255.441406 224.292969 252.234375 226.523438 249.128906 228.675781 C 241.078125 234.269531 233.472656 239.550781 224.410156 240.550781 C 213.582031 241.75 203.773438 236.566406 193.386719 231.074219 C 185.269531 226.777344 176.875 222.339844 167.734375 221.019531 C 153.707031 219 139.867188 224.457031 126.480469 229.734375 L 124.589844 230.480469 L 124.59375 230.480469 C 124.574219 230.488281 124.554688 230.496094 124.535156 230.503906 C 119.074219 232.652344 113.28125 234.871094 107.714844 236.347656 C 107.683594 236.351562 107.65625 236.359375 107.625 236.367188 C 97.304688 239.09375 89.054688 238.886719 81.664062 235.714844 C 77.726562 234.023438 74.25 231.523438 70.566406 228.875 C 67.375 226.582031 64.082031 224.214844 60.445312 222.40625 C 58.046875 221.21875 55.421875 220.394531 52.761719 219.976562 L 52.761719 213.070312 C 59.117188 212.769531 65.558594 213.578125 71.5 215.460938 C 72.339844 215.722656 73.617188 216.039062 74.9375 216.039062 C 75.855469 216.039062 76.796875 215.886719 77.621094 215.453125 C 78.582031 214.949219 79.257812 214.136719 79.582031 213.097656 C 79.992188 211.761719 79.902344 209.679688 77.144531 207.359375 C 70.617188 201.886719 61.644531 199.085938 52.761719 199.65625 L 52.761719 189.566406 C 54.214844 189.222656 55.664062 189.089844 57.085938 189.167969 C 67.601562 189.742188 76.398438 197.429688 83.820312 204.59375 L 84.621094 205.367188 C 92.570312 213.046875 100.785156 220.988281 111.746094 223.242188 C 113.878906 223.679688 115.984375 223.878906 118.070312 223.878906 C 128.019531 223.878906 137.449219 219.363281 146.617188 214.972656 C 148.179688 214.226562 149.746094 213.476562 151.316406 212.746094 C 157.234375 210 163.628906 207.335938 170.261719 206.425781 C 179.296875 205.191406 188.941406 207.226562 198.277344 209.195312 C 211.695312 212.027344 225.574219 214.953125 237.75 208.101562 C 244.8125 204.128906 249.835938 197.503906 254.695312 191.097656 C 260.5 183.441406 265.988281 176.210938 274.4375 173.78125 C 276.71875 173.125 279.113281 172.863281 281.652344 172.589844 C 285.300781 172.191406 289.066406 171.785156 292.558594 170.109375 C 296.765625 168.09375 299.773438 164.652344 302.6875 161.324219 C 304.328125 159.445312 305.878906 157.671875 307.625 156.136719 C 311.496094 152.742188 316.636719 150.761719 322.230469 150.4375 Z M 322.230469 146.492188 C 315.660156 146.816406 309.613281 149.152344 305.027344 153.179688 C 303.085938 154.886719 301.375 156.839844 299.722656 158.730469 C 296.953125 161.902344 294.332031 164.894531 290.855469 166.558594 C 287.972656 167.945312 284.695312 168.300781 281.226562 168.675781 C 278.636719 168.957031 275.953125 169.25 273.351562 170 C 263.640625 172.789062 257.5 180.886719 251.558594 188.71875 C 246.941406 194.804688 242.167969 201.097656 235.820312 204.671875 C 224.9375 210.796875 212.378906 208.148438 199.085938 205.34375 C 189.425781 203.304688 179.4375 201.195312 169.726562 202.527344 C 162.691406 203.488281 156.074219 206.214844 149.957031 209.042969 C 139.988281 210.175781 129.703125 211.308594 120.367188 208.457031 C 110.503906 205.449219 102.273438 197.972656 95.328125 191.195312 C 94.628906 190.511719 93.929688 189.824219 93.230469 189.140625 C 86.328125 182.367188 79.195312 175.363281 70.289062 171.050781 C 64.65625 168.324219 58.511719 167.035156 52.761719 167.34375 L 52.761719 147.847656 C 60.261719 146.859375 67.804688 149.132812 72.753906 153.953125 C 75.441406 156.566406 77.671875 159.96875 79.828125 163.253906 C 83.640625 169.074219 87.582031 175.085938 94.40625 177.550781 C 96.535156 178.320312 98.71875 178.636719 100.828125 178.945312 C 102.597656 179.203125 104.269531 179.449219 105.851562 179.933594 C 109.019531 180.917969 111.804688 182.863281 114.75 184.925781 C 116.085938 185.859375 117.46875 186.824219 118.898438 187.699219 C 125.074219 191.496094 131.210938 192.253906 135.730469 189.789062 C 137.941406 188.585938 139.523438 186.789062 141.054688 185.050781 C 142.171875 183.785156 143.226562 182.589844 144.445312 181.703125 C 149.121094 178.316406 155.820312 179.816406 160.140625 182.136719 C 163.460938 183.917969 166.367188 186.316406 169.441406 188.859375 C 171.203125 190.316406 173.023438 191.824219 174.929688 193.199219 C 180.242188 197.027344 185.464844 198.988281 190.257812 198.988281 C 191.539062 198.988281 192.785156 198.847656 193.996094 198.566406 C 201.847656 196.742188 206.199219 189.9375 210.40625 183.359375 C 213.964844 177.792969 217.328125 172.535156 222.589844 170.09375 C 227.800781 167.683594 233.710938 168.578125 239.964844 169.523438 C 244.214844 170.164062 248.605469 170.828125 252.953125 170.453125 C 260.730469 169.765625 268.425781 165.664062 274.621094 158.902344 C 280.65625 152.304688 284.386719 144.289062 286.964844 138.042969 L 287.304688 137.214844 C 291.234375 127.691406 295.6875 116.898438 304.976562 114.667969 C 310.195312 113.417969 316.335938 115.335938 321.421875 119.800781 C 321.707031 120.050781 321.972656 120.296875 322.230469 120.542969 Z M 322.230469 146.492188 " fill-opacity="1" fill-rule="nonzero"/></g></svg>