<svg xmlns="http://www.w3.org/2000/svg" xmlns:xlink="http://www.w3.org/1999/xlink" width="283" zoomAndPan="magnify" viewBox="0 0 212.25 219" height="292" preserveAspectRatio="xMidYMid meet" version="1.0"><defs><g/><clipPath id="5abc04aef2"><path d="M 0 92 L 210.753906 92 L 210.753906 218.542969 L 0 218.542969 Z M 0 92 " clip-rule="nonzero"/></clipPath><clipPath id="7c276ed541"><path d="M 207 0.386719 L 211 0.386719 L 211 122 L 207 122 Z M 207 0.386719 " clip-rule="nonzero"/></clipPath><clipPath id="8ae00be017"><path d="M 0 0.386719 L 3 0.386719 L 3 122 L 0 122 Z M 0 0.386719 " clip-rule="nonzero"/></clipPath><clipPath id="2999f346d8"><path d="M 1 0.386719 L 211.503906 0.386719 L 211.503906 4 L 1 4 Z M 1 0.386719 " clip-rule="nonzero"/></clipPath></defs><g clip-path="url(#5abc04aef2)"><path fill="#365162" d="M 145.335938 127.292969 C 146.117188 127.722656 146.953125 127.894531 147.800781 127.894531 C 149.976562 127.894531 152.234375 126.761719 153.890625 125.929688 L 155.191406 125.289062 C 156.59375 124.601562 158.039062 123.894531 159.441406 123.105469 C 161.058594 122.191406 162.628906 121.175781 164.148438 120.195312 L 165.007812 119.644531 C 165.253906 119.484375 165.539062 119.316406 165.84375 119.132812 C 168.226562 117.691406 172.21875 115.28125 171.089844 111.527344 C 170.515625 109.625 168.863281 108.335938 166.777344 108.171875 C 164.664062 108.003906 162.726562 109.0625 161.855469 110.867188 L 161.757812 111.0625 C 161.4375 111.730469 161.4375 111.730469 160.515625 112.308594 C 157.617188 114.113281 154.5 115.503906 151.246094 116.445312 L 150.566406 116.636719 C 148.671875 117.171875 146.519531 117.773438 144.914062 119.34375 C 143.691406 120.519531 143.019531 122.445312 143.242188 124.140625 C 143.425781 125.53125 144.167969 126.648438 145.335938 127.292969 Z M 146.988281 121.496094 C 146.992188 121.492188 146.996094 121.488281 147 121.484375 C 148.0625 120.445312 149.671875 119.996094 151.375 119.515625 L 152.078125 119.316406 C 155.59375 118.300781 158.964844 116.792969 162.09375 114.84375 C 163.570312 113.925781 163.832031 113.644531 164.453125 112.359375 L 164.542969 112.167969 C 164.914062 111.40625 165.714844 111.144531 166.359375 111.144531 C 166.421875 111.144531 166.480469 111.148438 166.539062 111.152344 C 166.855469 111.175781 167.910156 111.339844 168.222656 112.390625 C 168.648438 113.800781 166.515625 115.230469 164.296875 116.570312 C 163.964844 116.769531 163.65625 116.953125 163.390625 117.125 L 162.527344 117.683594 C 161.046875 118.640625 159.511719 119.628906 157.96875 120.5 C 156.644531 121.246094 155.238281 121.933594 153.875 122.601562 L 152.546875 123.257812 C 150.914062 124.078125 148.1875 125.445312 146.777344 124.671875 C 146.65625 124.605469 146.292969 124.40625 146.207031 123.75 C 146.109375 122.988281 146.445312 122.019531 146.988281 121.496094 Z M 195.078125 141.703125 C 193.058594 140.691406 190.640625 142.84375 188.507812 144.742188 L 176.929688 154.898438 C 176.332031 155.421875 175.097656 156.503906 175.222656 158.125 C 175.28125 158.90625 175.640625 159.585938 176.253906 160.097656 C 177.207031 160.894531 178.496094 161.042969 179.320312 161.042969 C 179.609375 161.042969 179.84375 161.023438 179.984375 161.007812 C 184.140625 160.570312 188.15625 159.167969 190.722656 157.257812 C 194.292969 154.601562 196.25 149.515625 196.554688 145.917969 C 196.625 145.09375 196.839844 142.582031 195.078125 141.703125 Z M 193.574219 145.664062 C 193.316406 148.710938 191.640625 152.847656 188.9375 154.859375 C 186.78125 156.464844 183.316406 157.648438 179.671875 158.035156 C 179.015625 158.101562 178.453125 157.96875 178.238281 157.847656 C 178.300781 157.738281 178.464844 157.53125 178.898438 157.148438 L 189.980469 147.4375 L 190.5 146.976562 C 191.148438 146.398438 192.707031 145.007812 193.589844 144.570312 C 193.613281 144.800781 193.617188 145.152344 193.574219 145.664062 Z M 143.355469 148.3125 C 141.6875 147.054688 139.632812 146.605469 137.664062 146.3125 C 134.734375 145.875 130.480469 145.574219 127.429688 148.019531 C 125.605469 149.484375 124.644531 152.226562 125.144531 154.535156 C 125.320312 155.359375 125.941406 155.894531 126.351562 156.25 C 126.410156 156.300781 126.46875 156.347656 126.515625 156.394531 C 127.546875 157.351562 128.5625 158.039062 129.625 158.488281 C 130.574219 158.894531 131.566406 159.09375 132.527344 159.09375 C 133.570312 159.09375 134.574219 158.859375 135.4375 158.382812 C 136.152344 157.992188 136.730469 157.472656 137.238281 157.011719 C 137.710938 156.585938 138.152344 156.1875 138.605469 155.976562 C 139.085938 155.753906 139.722656 155.683594 140.394531 155.605469 L 140.8125 155.554688 C 141.886719 155.421875 143.121094 155.171875 144.121094 154.320312 C 145.074219 153.511719 145.5625 152.242188 145.367188 151.082031 C 145.210938 150.132812 144.53125 149.199219 143.355469 148.3125 Z M 142.183594 152.039062 C 141.785156 152.382812 141.082031 152.507812 140.445312 152.585938 L 140.054688 152.632812 C 139.21875 152.730469 138.269531 152.835938 137.351562 153.261719 C 136.488281 153.660156 135.824219 154.261719 135.238281 154.792969 C 134.8125 155.175781 134.410156 155.539062 134.003906 155.761719 C 133.152344 156.226562 131.921875 156.21875 130.796875 155.738281 C 130.058594 155.425781 129.328125 154.921875 128.554688 154.207031 C 128.484375 154.136719 128.398438 154.0625 128.308594 153.984375 C 128.230469 153.917969 128.113281 153.816406 128.039062 153.742188 C 127.855469 152.5625 128.402344 151.074219 129.304688 150.355469 C 131.414062 148.660156 134.644531 148.882812 137.222656 149.269531 C 138.695312 149.492188 140.363281 149.800781 141.554688 150.699219 C 141.554688 150.703125 141.554688 150.703125 141.558594 150.703125 C 142.179688 151.171875 142.398438 151.515625 142.421875 151.574219 C 142.4375 151.671875 142.355469 151.898438 142.183594 152.039062 Z M 210.8125 99.34375 C 210.808594 99.277344 210.808594 99.210938 210.792969 99.148438 C 210.785156 99.101562 210.769531 99.058594 210.757812 99.011719 C 210.742188 98.964844 210.730469 98.914062 210.710938 98.867188 C 210.691406 98.820312 210.667969 98.777344 210.640625 98.734375 C 210.621094 98.691406 210.601562 98.648438 210.574219 98.609375 C 210.539062 98.558594 210.5 98.511719 210.457031 98.464844 C 210.4375 98.4375 210.417969 98.410156 210.394531 98.382812 C 210.019531 98 209.625 97.632812 209.191406 97.25 C 204.597656 93.222656 198.933594 91.515625 194.023438 92.691406 C 185.480469 94.742188 181.625 104.085938 178.527344 111.589844 L 178.269531 112.21875 C 176.40625 116.738281 173.71875 122.527344 169.449219 127.191406 C 165.25 131.773438 160.09375 134.550781 154.929688 135.007812 C 151.980469 135.265625 148.824219 134.785156 145.769531 134.324219 C 140.789062 133.570312 135.636719 132.792969 130.863281 135 C 126.074219 137.222656 123.160156 141.777344 120.339844 146.183594 C 117.335938 150.882812 114.496094 155.324219 109.714844 156.4375 C 105.292969 157.460938 100.714844 155.050781 97.65625 152.847656 C 96.285156 151.859375 94.941406 150.746094 93.640625 149.667969 C 91.292969 147.730469 88.867188 145.722656 86.078125 144.230469 C 81.84375 141.957031 75.652344 140.734375 70.988281 144.113281 C 69.789062 144.984375 68.839844 146.058594 67.921875 147.101562 C 66.882812 148.28125 65.902344 149.390625 64.6875 150.054688 C 61.179688 151.964844 56.671875 149.632812 54.890625 148.542969 C 53.882812 147.925781 52.871094 147.214844 51.890625 146.53125 C 49.5625 144.902344 47.15625 143.21875 44.300781 142.335938 C 42.875 141.894531 41.429688 141.683594 40.03125 141.480469 C 38.507812 141.257812 37.066406 141.050781 35.734375 140.570312 C 31.488281 139.035156 28.890625 135.074219 26.140625 130.878906 C 24.414062 128.246094 22.628906 125.523438 20.351562 123.304688 C 15.632812 118.710938 8.332031 116.707031 1.292969 118.070312 C 1.292969 118.070312 1.289062 118.070312 1.289062 118.070312 C 1.207031 118.085938 1.132812 118.113281 1.058594 118.140625 C 1.039062 118.148438 1.019531 118.152344 1 118.160156 C 0.933594 118.1875 0.875 118.222656 0.8125 118.261719 C 0.789062 118.273438 0.765625 118.28125 0.742188 118.296875 C 0.6875 118.335938 0.640625 118.378906 0.589844 118.425781 C 0.566406 118.445312 0.542969 118.460938 0.519531 118.480469 C 0.355469 118.648438 0.234375 118.855469 0.160156 119.085938 C 0.144531 119.136719 0.125 119.183594 0.113281 119.234375 C 0.109375 119.261719 0.109375 119.292969 0.105469 119.324219 C 0.09375 119.394531 0.0820312 119.460938 0.0820312 119.53125 C 0.0859375 119.535156 0.0820312 119.535156 0.0820312 119.539062 L 0.0820312 216.953125 C 0.0820312 217.78125 0.753906 218.449219 1.578125 218.449219 L 209.328125 218.449219 C 210.15625 218.449219 210.824219 217.78125 210.824219 216.953125 L 210.824219 99.433594 C 210.824219 99.402344 210.816406 99.375 210.8125 99.34375 Z M 3.074219 138.628906 C 6.964844 138.402344 11.269531 139.285156 15.09375 141.132812 C 21.417969 144.195312 26.660156 149.34375 31.730469 154.320312 C 32.265625 154.847656 32.800781 155.371094 33.332031 155.890625 C 38.859375 161.285156 45.4375 167.246094 53.574219 169.726562 C 57.191406 170.832031 60.992188 171.210938 64.785156 171.210938 C 66.183594 171.210938 67.582031 171.15625 68.96875 171.070312 C 62.117188 174.21875 55.476562 176.609375 48.496094 175.171875 C 41.019531 173.636719 35.09375 167.90625 29.363281 162.367188 L 28.753906 161.777344 C 22.285156 155.535156 15.113281 149.691406 6.523438 149.226562 C 5.386719 149.160156 4.230469 149.253906 3.074219 149.46875 Z M 3.074219 163.171875 C 9.128906 162.734375 15.253906 164.613281 19.679688 168.324219 C 20.515625 169.027344 20.617188 169.449219 20.597656 169.519531 C 20.4375 169.660156 19.539062 169.753906 18.210938 169.335938 C 13.414062 167.816406 8.214844 167.152344 3.074219 167.378906 Z M 3.074219 215.457031 L 3.074219 202.660156 C 7.222656 203.507812 10.988281 206.035156 14.628906 208.480469 L 15.5625 209.109375 C 19.695312 211.878906 24.570312 214.839844 30.101562 214.9375 C 36.15625 215.035156 41.230469 211.78125 46.136719 208.625 C 49.710938 206.324219 53.402344 203.949219 57.355469 203.003906 C 67.730469 200.523438 77.730469 207.621094 87.082031 215.101562 C 87.238281 215.226562 87.382812 215.339844 87.535156 215.457031 Z M 179.433594 215.457031 C 182.683594 213.734375 186.28125 212.714844 189.902344 212.519531 C 194.429688 212.273438 199.039062 213.328125 203.085938 215.457031 Z M 207.832031 214.890625 C 202.625 211.132812 196.117188 209.183594 189.742188 209.53125 C 184.085938 209.835938 178.496094 211.9375 173.933594 215.457031 L 92.4375 215.457031 C 91.390625 214.679688 90.273438 213.820312 88.949219 212.765625 C 79.453125 205.171875 68.34375 197.304688 56.660156 200.09375 C 52.214844 201.15625 48.300781 203.675781 44.519531 206.109375 C 39.855469 209.109375 35.445312 211.949219 30.402344 211.949219 C 30.320312 211.949219 30.238281 211.949219 30.15625 211.945312 C 25.4375 211.863281 21.007812 209.15625 17.226562 206.625 L 16.296875 206 C 12.324219 203.328125 8.214844 200.5625 3.34375 199.660156 C 3.257812 199.644531 3.164062 199.632812 3.074219 199.621094 L 3.074219 178.648438 C 4.636719 178.941406 6.171875 179.449219 7.585938 180.148438 C 10.128906 181.410156 12.425781 183.0625 14.859375 184.808594 C 17.664062 186.828125 20.566406 188.910156 23.859375 190.328125 C 30.101562 193.007812 36.96875 193.21875 45.464844 190.984375 C 45.488281 190.976562 45.511719 190.972656 45.53125 190.96875 C 49.902344 189.8125 54.378906 188.105469 58.59375 186.445312 C 73.390625 184.199219 89.863281 189.875 102.625 195.101562 C 116.484375 200.777344 131.679688 206.996094 146.445312 206.996094 C 152.097656 206.996094 157.691406 206.085938 163.117188 203.882812 C 165.628906 202.863281 168.039062 201.578125 170.375 200.335938 C 174.078125 198.363281 177.578125 196.5 181.449219 195.609375 C 191.078125 193.394531 200.53125 197.746094 207.832031 201.996094 Z M 207.832031 198.550781 C 200.269531 194.324219 190.742188 190.402344 180.777344 192.695312 C 176.523438 193.671875 172.683594 195.71875 168.96875 197.695312 C 166.703125 198.902344 164.363281 200.148438 161.996094 201.109375 C 143.511719 208.609375 122.394531 199.960938 103.707031 192.3125 C 93.25 188.027344 80.285156 183.441406 67.570312 182.988281 C 75.03125 180.292969 82.597656 178.304688 90.011719 179.371094 C 96.445312 180.300781 102.589844 183.550781 108.535156 186.695312 C 115.6875 190.476562 123.054688 194.375 131.125 194.375 C 132.019531 194.375 132.921875 194.328125 133.835938 194.226562 C 141.472656 193.382812 147.839844 188.960938 153.996094 184.6875 C 156.308594 183.082031 158.703125 181.417969 161.101562 180 C 168.878906 175.394531 177.777344 172.753906 186.382812 170.195312 C 192.332031 168.433594 199.070312 166.433594 205.5625 167.085938 C 206.316406 167.164062 207.078125 167.289062 207.835938 167.457031 L 207.835938 198.550781 Z M 207.832031 164.398438 C 207.175781 164.273438 206.515625 164.175781 205.859375 164.113281 C 198.789062 163.402344 191.746094 165.488281 185.53125 167.332031 C 176.75 169.9375 167.671875 172.632812 159.574219 177.425781 C 157.082031 178.902344 154.644531 180.59375 152.289062 182.230469 C 146.167969 186.480469 140.390625 190.492188 133.503906 191.253906 C 125.277344 192.164062 117.824219 188.222656 109.929688 184.050781 C 103.761719 180.789062 97.382812 177.414062 90.4375 176.410156 C 79.78125 174.875 69.265625 179.023438 59.09375 183.035156 L 57.65625 183.601562 C 57.644531 183.605469 57.628906 183.613281 57.613281 183.617188 C 53.464844 185.25 49.0625 186.9375 44.832031 188.058594 C 44.808594 188.0625 44.785156 188.070312 44.765625 188.074219 C 36.921875 190.144531 30.652344 189.988281 25.039062 187.578125 C 22.046875 186.292969 19.402344 184.390625 16.605469 182.378906 C 14.179688 180.640625 11.675781 178.839844 8.914062 177.464844 C 7.09375 176.5625 5.097656 175.9375 3.074219 175.617188 L 3.074219 170.371094 C 7.90625 170.140625 12.800781 170.757812 17.3125 172.1875 C 17.953125 172.390625 18.921875 172.628906 19.925781 172.628906 C 20.625 172.628906 21.339844 172.511719 21.964844 172.183594 C 22.695312 171.800781 23.210938 171.183594 23.457031 170.394531 C 23.765625 169.378906 23.699219 167.796875 21.605469 166.03125 C 16.644531 161.875 9.824219 159.746094 3.074219 160.179688 L 3.074219 152.511719 C 4.179688 152.253906 5.28125 152.148438 6.363281 152.210938 C 14.351562 152.644531 21.035156 158.488281 26.675781 163.929688 L 27.285156 164.515625 C 33.324219 170.355469 39.566406 176.390625 47.894531 178.101562 C 49.515625 178.433594 51.117188 178.585938 52.699219 178.585938 C 60.261719 178.585938 67.425781 175.15625 74.394531 171.816406 C 75.578125 171.25 76.769531 170.679688 77.960938 170.125 C 82.460938 168.039062 87.316406 166.011719 92.359375 165.324219 C 99.222656 164.386719 106.554688 165.933594 113.644531 167.429688 C 123.84375 169.578125 134.390625 171.804688 143.640625 166.597656 C 149.003906 163.578125 152.824219 158.542969 156.515625 153.675781 C 160.929688 147.859375 165.097656 142.363281 171.519531 140.519531 C 173.25 140.019531 175.070312 139.820312 177 139.613281 C 179.769531 139.3125 182.632812 139 185.285156 137.726562 C 188.484375 136.199219 190.769531 133.582031 192.984375 131.050781 C 194.230469 129.625 195.410156 128.277344 196.734375 127.113281 C 199.675781 124.53125 203.582031 123.027344 207.832031 122.777344 Z M 207.832031 119.78125 C 202.84375 120.027344 198.246094 121.804688 194.761719 124.863281 C 193.285156 126.160156 191.988281 127.648438 190.730469 129.082031 C 188.625 131.492188 186.636719 133.765625 183.992188 135.03125 C 181.800781 136.082031 179.3125 136.351562 176.675781 136.640625 C 174.707031 136.851562 172.671875 137.074219 170.691406 137.644531 C 163.316406 139.761719 158.644531 145.917969 154.132812 151.871094 C 150.625 156.492188 146.996094 161.277344 142.171875 163.992188 C 133.902344 168.644531 124.363281 166.632812 114.261719 164.503906 C 106.921875 162.953125 99.332031 161.351562 91.953125 162.359375 C 86.605469 163.09375 81.578125 165.164062 76.929688 167.3125 C 69.355469 168.175781 61.539062 169.035156 54.445312 166.867188 C 46.953125 164.582031 40.695312 158.898438 35.421875 153.75 C 34.890625 153.230469 34.359375 152.710938 33.824219 152.1875 C 28.582031 147.039062 23.160156 141.71875 16.394531 138.441406 C 12.113281 136.371094 7.445312 135.394531 3.074219 135.625 L 3.074219 120.8125 C 8.777344 120.0625 14.507812 121.789062 18.265625 125.449219 C 20.308594 127.4375 22.003906 130.023438 23.640625 132.519531 C 26.539062 136.941406 29.535156 141.511719 34.71875 143.382812 C 36.335938 143.96875 37.996094 144.207031 39.597656 144.441406 C 40.945312 144.636719 42.214844 144.824219 43.417969 145.195312 C 45.824219 145.941406 47.941406 147.417969 50.179688 148.984375 C 51.195312 149.695312 52.242188 150.429688 53.328125 151.09375 C 58.023438 153.976562 62.683594 154.554688 66.121094 152.683594 C 67.800781 151.769531 69.003906 150.402344 70.167969 149.078125 C 71.015625 148.117188 71.816406 147.210938 72.742188 146.539062 C 76.296875 143.964844 81.386719 145.105469 84.667969 146.867188 C 87.191406 148.21875 89.398438 150.042969 91.734375 151.976562 C 93.074219 153.082031 94.457031 154.226562 95.90625 155.273438 C 99.941406 158.179688 103.910156 159.671875 107.554688 159.671875 C 108.523438 159.671875 109.472656 159.566406 110.394531 159.351562 C 116.359375 157.964844 119.664062 152.796875 122.863281 147.796875 C 125.566406 143.566406 128.121094 139.570312 132.121094 137.71875 C 136.082031 135.886719 140.570312 136.566406 145.324219 137.285156 C 148.550781 137.769531 151.890625 138.273438 155.191406 137.988281 C 161.101562 137.464844 166.949219 134.351562 171.65625 129.210938 C 176.242188 124.199219 179.078125 118.109375 181.035156 113.363281 L 181.296875 112.734375 C 184.28125 105.496094 187.664062 97.296875 194.722656 95.601562 C 198.6875 94.648438 203.355469 96.109375 207.21875 99.5 C 207.433594 99.691406 207.636719 99.878906 207.832031 100.0625 Z M 207.832031 119.78125 " fill-opacity="1" fill-rule="nonzero"/></g><g clip-path="url(#7c276ed541)"><path stroke-linecap="butt" transform="matrix(0, 0.747359, -0.747359, 0, 210.918087, 0.385573)" fill="none" stroke-linejoin="miter" d="M 0.0015326 2.001999 L 160.002412 2.001999 " stroke="#365162" stroke-width="4" stroke-opacity="1" stroke-miterlimit="4"/></g><g clip-path="url(#8ae00be017)"><path stroke-linecap="butt" transform="matrix(0, 0.747359, -0.747359, 0, 2.989437, 0.385573)" fill="none" stroke-linejoin="miter" d="M 0.0015326 1.99816 L 160.002412 1.99816 " stroke="#365162" stroke-width="4" stroke-opacity="1" stroke-miterlimit="4"/></g><g clip-path="url(#2999f346d8)"><path stroke-linecap="butt" transform="matrix(-0.747359, 0, 0, -0.747359, 210.907096, 3.37501)" fill="none" stroke-linejoin="miter" d="M 0.00113149 2.001854 L 278.220354 2.001854 " stroke="#365162" stroke-width="4" stroke-opacity="1" stroke-miterlimit="4"/></g><g fill="#365162" fill-opacity="1"><g transform="translate(10.585236, 34.238348)"><g><path d="M 5.609375 0 C 5.9375 0 6.03125 -0.109375 6.0625 -0.421875 L 6.453125 -5.546875 C 7 -5.390625 7.640625 -5.296875 8.484375 -5.296875 C 13.875 -5.296875 16.109375 -9.375 16.109375 -13.734375 C 16.109375 -17.71875 14.203125 -20.09375 9.40625 -20.09375 C 7.765625 -20.09375 4.90625 -19.8125 2.984375 -19.8125 C 2.796875 -19.8125 2.5625 -19.671875 2.5625 -19.390625 C 2.546875 -17.71875 2.546875 -17.140625 1.984375 -10.515625 C 1.671875 -6.953125 1.421875 -3.4375 1.421875 -2.484375 C 1.421875 -0.859375 2.234375 0 4.328125 0 Z M 8.84375 -15.90625 C 10.75 -15.90625 11.359375 -15.046875 11.359375 -13.453125 C 11.359375 -12.03125 10.890625 -9.203125 8.28125 -9.203125 C 7.84375 -9.203125 7.28125 -9.265625 6.71875 -9.40625 C 6.890625 -11.828125 7.03125 -14.203125 7.09375 -15.765625 C 7.765625 -15.84375 8.375 -15.90625 8.84375 -15.90625 Z M 8.84375 -15.90625 "/></g></g></g><g fill="#365162" fill-opacity="1"><g transform="translate(26.989027, 34.238348)"><g><path d="M 0.3125 -3.4375 C 0.3125 -0.71875 2.125 0.28125 4.359375 0.28125 C 6.671875 0.28125 8.015625 -0.859375 8.90625 -2.15625 C 9.1875 -0.640625 10.015625 0.28125 11.796875 0.28125 C 14.375 0.28125 15.15625 -1.703125 15.15625 -3.34375 C 15.15625 -3.9375 13.5 -3.328125 13.5 -5.1875 C 13.5 -6.03125 13.984375 -9.875 13.984375 -10.71875 C 13.984375 -13.84375 12.21875 -15.625 8.09375 -15.625 C 3.828125 -15.625 1.703125 -13.734375 1.703125 -11.390625 C 1.703125 -9.90625 2.65625 -9.234375 4.546875 -9.234375 C 5.109375 -9.234375 5.328125 -9.296875 5.40625 -9.625 C 5.75 -10.96875 6 -11.890625 7.5625 -11.890625 C 8.953125 -11.890625 9.296875 -11.140625 9.296875 -9.9375 C 9.296875 -9.546875 9.265625 -9.296875 9.234375 -8.90625 C 3.40625 -8.765625 0.3125 -6.75 0.3125 -3.4375 Z M 8.984375 -6.609375 C 8.8125 -4.5 7.59375 -3.4375 6.390625 -3.4375 C 5.78125 -3.4375 5.109375 -3.71875 5.109375 -4.578125 C 5.109375 -6.0625 7.03125 -6.609375 8.984375 -6.609375 Z M 8.984375 -6.609375 "/></g></g></g><g fill="#365162" fill-opacity="1"><g transform="translate(42.695383, 34.238348)"><g><path d="M 10.15625 -8.671875 C 12.109375 -8.671875 13.359375 -10.375 13.359375 -12.390625 C 13.359375 -14.625 11.78125 -15.625 10.328125 -15.625 C 9.125 -15.625 7.421875 -14.953125 6.5625 -13.234375 C 6.421875 -14.375 5.796875 -15.34375 3.6875 -15.34375 L 2.59375 -15.34375 C 2.28125 -15.34375 2.03125 -15.0625 2.015625 -14.546875 C 1.421875 -6.328125 1.171875 -3.796875 1.171875 -2.65625 C 1.171875 -0.953125 1.734375 0 4.015625 0 L 5.015625 0 C 5.328125 0 5.640625 -0.203125 5.640625 -0.5625 C 5.640625 -1.203125 6 -5.296875 6.171875 -7.671875 C 6.359375 -10.375 7.09375 -11.75 8.125 -11.75 C 8.796875 -11.75 8.953125 -11.15625 8.953125 -10.359375 C 8.953125 -9.90625 8.90625 -9.515625 8.90625 -9.046875 C 8.90625 -8.765625 9.734375 -8.671875 10.15625 -8.671875 Z M 10.15625 -8.671875 "/></g></g></g><g fill="#365162" fill-opacity="1"><g transform="translate(56.05834, 34.238348)"><g><path d="M 0.3125 -3.4375 C 0.3125 -0.71875 2.125 0.28125 4.359375 0.28125 C 6.671875 0.28125 8.015625 -0.859375 8.90625 -2.15625 C 9.1875 -0.640625 10.015625 0.28125 11.796875 0.28125 C 14.375 0.28125 15.15625 -1.703125 15.15625 -3.34375 C 15.15625 -3.9375 13.5 -3.328125 13.5 -5.1875 C 13.5 -6.03125 13.984375 -9.875 13.984375 -10.71875 C 13.984375 -13.84375 12.21875 -15.625 8.09375 -15.625 C 3.828125 -15.625 1.703125 -13.734375 1.703125 -11.390625 C 1.703125 -9.90625 2.65625 -9.234375 4.546875 -9.234375 C 5.109375 -9.234375 5.328125 -9.296875 5.40625 -9.625 C 5.75 -10.96875 6 -11.890625 7.5625 -11.890625 C 8.953125 -11.890625 9.296875 -11.140625 9.296875 -9.9375 C 9.296875 -9.546875 9.265625 -9.296875 9.234375 -8.90625 C 3.40625 -8.765625 0.3125 -6.75 0.3125 -3.4375 Z M 8.984375 -6.609375 C 8.8125 -4.5 7.59375 -3.4375 6.390625 -3.4375 C 5.78125 -3.4375 5.109375 -3.71875 5.109375 -4.578125 C 5.109375 -6.0625 7.03125 -6.609375 8.984375 -6.609375 Z M 8.984375 -6.609375 "/></g></g></g><g fill="#365162" fill-opacity="1"><g transform="translate(71.764697, 34.238348)"><g><path d="M 6.25 0.28125 C 8.28125 0.28125 9.65625 -0.703125 10.328125 -2.125 C 10.328125 -0.421875 11.53125 0 13.109375 0 L 14.125 0 C 14.65625 0 14.671875 -0.109375 14.734375 -0.5625 C 14.90625 -2.234375 16.078125 -18.1875 16.078125 -18.25 C 16.078125 -19.5 15.40625 -20.65625 13.171875 -20.65625 L 12.078125 -20.65625 C 11.78125 -20.65625 11.71875 -20.65625 11.640625 -20.5625 C 11.546875 -20.484375 11.53125 -20.28125 11.5 -19.84375 C 11.359375 -17.5 11.21875 -16.359375 11.078125 -13.453125 C 10.765625 -15.046875 9.59375 -15.625 7.765625 -15.625 C 1.953125 -15.625 0.84375 -9.796875 0.84375 -6.5625 C 0.84375 -1.765625 3.328125 0.28125 6.25 0.28125 Z M 8.671875 -11.921875 C 10.546875 -11.921875 10.9375 -10.15625 10.9375 -8.28125 C 10.9375 -4.96875 9.71875 -3.4375 8.125 -3.4375 C 6.3125 -3.4375 5.890625 -5.40625 5.890625 -7.34375 C 5.890625 -10.125 6.78125 -11.921875 8.671875 -11.921875 Z M 8.671875 -11.921875 "/></g></g></g><g fill="#365162" fill-opacity="1"><g transform="translate(88.726441, 34.238348)"><g><path d="M 5.015625 0 C 5.5 0 5.609375 -0.109375 5.640625 -0.5625 C 6.28125 -8.5625 6.53125 -11.71875 6.53125 -12.8125 C 6.53125 -14.40625 5.96875 -15.34375 3.6875 -15.34375 L 2.59375 -15.34375 C 2.34375 -15.34375 2.234375 -15.34375 2.15625 -15.265625 C 2.0625 -15.1875 2.03125 -14.984375 2.015625 -14.546875 C 1.421875 -6.328125 1.171875 -3.796875 1.171875 -2.65625 C 1.171875 -0.953125 1.734375 0 4.015625 0 Z M 2.03125 -18.640625 C 2.03125 -17.4375 2.8125 -16.859375 4.296875 -16.859375 C 6.25 -16.859375 7.3125 -17.890625 7.3125 -19.25 C 7.3125 -20.34375 6.609375 -21.046875 5.015625 -21.046875 C 3.203125 -21.046875 2.03125 -20.125 2.03125 -18.640625 Z M 2.03125 -18.640625 "/></g></g></g><g fill="#365162" fill-opacity="1"><g transform="translate(96.565673, 34.238348)"><g><path d="M 7.640625 -15.625 C 4.578125 -15.625 1.25 -14.28125 1.25 -10.46875 C 1.25 -5.28125 7.375 -6.1875 7.375 -4.078125 C 7.375 -3.296875 6.5 -3.15625 5.578125 -3.15625 C 3.125 -3.15625 2.8125 -4.1875 1.890625 -4.1875 C 0.8125 -4.1875 0.28125 -2.703125 0.28125 -2.0625 C 0.28125 -0.3125 4.109375 0.28125 6.1875 0.28125 C 9.96875 0.28125 11.890625 -1.625 11.890625 -4.296875 C 11.890625 -9.296875 5.25 -8.421875 5.25 -10.75 C 5.25 -11.5 5.9375 -12.0625 6.96875 -12.0625 C 8.515625 -12.0625 8.5625 -10.859375 8.59375 -10.1875 C 8.59375 -9.875 8.734375 -9.796875 9.265625 -9.796875 C 11.1875 -9.796875 12.25 -10.6875 12.25 -12.3125 C 12.25 -14.234375 10.765625 -15.625 7.640625 -15.625 Z M 7.640625 -15.625 "/></g></g></g><g fill="#365162" fill-opacity="1"><g transform="translate(109.677552, 34.238348)"><g><path d="M 7.59375 0.28125 C 10.078125 0.28125 13.0625 -0.59375 13.0625 -2.765625 C 13.0625 -4.4375 11.296875 -4.75 10.9375 -4.75 C 10.15625 -4.75 10.1875 -3.203125 8.234375 -3.203125 C 6.328125 -3.203125 5.578125 -4.625 5.578125 -6.0625 C 7.390625 -6.0625 14.3125 -6.328125 14.3125 -11.4375 C 14.3125 -13.734375 12.953125 -15.625 9.0625 -15.625 C 1.875 -15.625 0.78125 -9.0625 0.78125 -6.25 C 0.78125 -1.171875 4.359375 0.28125 7.59375 0.28125 Z M 8.125 -11.921875 C 9.0625 -11.921875 9.546875 -11.21875 9.546875 -10.46875 C 9.546875 -9.09375 7.953125 -8.3125 5.671875 -8.28125 C 5.859375 -9.875 6.46875 -11.921875 8.125 -11.921875 Z M 8.125 -11.921875 "/></g></g></g><g fill="#365162" fill-opacity="1"><g transform="translate(10.585236, 61.890637)"><g><path d="M 5.609375 0 C 5.9375 0 6.03125 -0.109375 6.0625 -0.421875 L 6.453125 -5.546875 C 7 -5.390625 7.640625 -5.296875 8.484375 -5.296875 C 13.875 -5.296875 16.109375 -9.375 16.109375 -13.734375 C 16.109375 -17.71875 14.203125 -20.09375 9.40625 -20.09375 C 7.765625 -20.09375 4.90625 -19.8125 2.984375 -19.8125 C 2.796875 -19.8125 2.5625 -19.671875 2.5625 -19.390625 C 2.546875 -17.71875 2.546875 -17.140625 1.984375 -10.515625 C 1.671875 -6.953125 1.421875 -3.4375 1.421875 -2.484375 C 1.421875 -0.859375 2.234375 0 4.328125 0 Z M 8.84375 -15.90625 C 10.75 -15.90625 11.359375 -15.046875 11.359375 -13.453125 C 11.359375 -12.03125 10.890625 -9.203125 8.28125 -9.203125 C 7.84375 -9.203125 7.28125 -9.265625 6.71875 -9.40625 C 6.890625 -11.828125 7.03125 -14.203125 7.09375 -15.765625 C 7.765625 -15.84375 8.375 -15.90625 8.84375 -15.90625 Z M 8.84375 -15.90625 "/></g></g></g><g fill="#365162" fill-opacity="1"><g transform="translate(26.989027, 61.890637)"><g><path d="M 0.3125 -3.4375 C 0.3125 -0.71875 2.125 0.28125 4.359375 0.28125 C 6.671875 0.28125 8.015625 -0.859375 8.90625 -2.15625 C 9.1875 -0.640625 10.015625 0.28125 11.796875 0.28125 C 14.375 0.28125 15.15625 -1.703125 15.15625 -3.34375 C 15.15625 -3.9375 13.5 -3.328125 13.5 -5.1875 C 13.5 -6.03125 13.984375 -9.875 13.984375 -10.71875 C 13.984375 -13.84375 12.21875 -15.625 8.09375 -15.625 C 3.828125 -15.625 1.703125 -13.734375 1.703125 -11.390625 C 1.703125 -9.90625 2.65625 -9.234375 4.546875 -9.234375 C 5.109375 -9.234375 5.328125 -9.296875 5.40625 -9.625 C 5.75 -10.96875 6 -11.890625 7.5625 -11.890625 C 8.953125 -11.890625 9.296875 -11.140625 9.296875 -9.9375 C 9.296875 -9.546875 9.265625 -9.296875 9.234375 -8.90625 C 3.40625 -8.765625 0.3125 -6.75 0.3125 -3.4375 Z M 8.984375 -6.609375 C 8.8125 -4.5 7.59375 -3.4375 6.390625 -3.4375 C 5.78125 -3.4375 5.109375 -3.71875 5.109375 -4.578125 C 5.109375 -6.0625 7.03125 -6.609375 8.984375 -6.609375 Z M 8.984375 -6.609375 "/></g></g></g><g fill="#365162" fill-opacity="1"><g transform="translate(42.695383, 61.890637)"><g><path d="M 6.25 0.28125 C 8.28125 0.28125 9.65625 -0.703125 10.328125 -2.125 C 10.328125 -0.421875 11.53125 0 13.109375 0 L 14.125 0 C 14.65625 0 14.671875 -0.109375 14.734375 -0.5625 C 14.90625 -2.234375 16.078125 -18.1875 16.078125 -18.25 C 16.078125 -19.5 15.40625 -20.65625 13.171875 -20.65625 L 12.078125 -20.65625 C 11.78125 -20.65625 11.71875 -20.65625 11.640625 -20.5625 C 11.546875 -20.484375 11.53125 -20.28125 11.5 -19.84375 C 11.359375 -17.5 11.21875 -16.359375 11.078125 -13.453125 C 10.765625 -15.046875 9.59375 -15.625 7.765625 -15.625 C 1.953125 -15.625 0.84375 -9.796875 0.84375 -6.5625 C 0.84375 -1.765625 3.328125 0.28125 6.25 0.28125 Z M 8.671875 -11.921875 C 10.546875 -11.921875 10.9375 -10.15625 10.9375 -8.28125 C 10.9375 -4.96875 9.71875 -3.4375 8.125 -3.4375 C 6.3125 -3.4375 5.890625 -5.40625 5.890625 -7.34375 C 5.890625 -10.125 6.78125 -11.921875 8.671875 -11.921875 Z M 8.671875 -11.921875 "/></g></g></g><g fill="#365162" fill-opacity="1"><g transform="translate(59.657127, 61.890637)"><g><path d="M 6.25 0.28125 C 8.28125 0.28125 9.65625 -0.703125 10.328125 -2.125 C 10.328125 -0.421875 11.53125 0 13.109375 0 L 14.125 0 C 14.65625 0 14.671875 -0.109375 14.734375 -0.5625 C 14.90625 -2.234375 16.078125 -18.1875 16.078125 -18.25 C 16.078125 -19.5 15.40625 -20.65625 13.171875 -20.65625 L 12.078125 -20.65625 C 11.78125 -20.65625 11.71875 -20.65625 11.640625 -20.5625 C 11.546875 -20.484375 11.53125 -20.28125 11.5 -19.84375 C 11.359375 -17.5 11.21875 -16.359375 11.078125 -13.453125 C 10.765625 -15.046875 9.59375 -15.625 7.765625 -15.625 C 1.953125 -15.625 0.84375 -9.796875 0.84375 -6.5625 C 0.84375 -1.765625 3.328125 0.28125 6.25 0.28125 Z M 8.671875 -11.921875 C 10.546875 -11.921875 10.9375 -10.15625 10.9375 -8.28125 C 10.9375 -4.96875 9.71875 -3.4375 8.125 -3.4375 C 6.3125 -3.4375 5.890625 -5.40625 5.890625 -7.34375 C 5.890625 -10.125 6.78125 -11.921875 8.671875 -11.921875 Z M 8.671875 -11.921875 "/></g></g></g><g fill="#365162" fill-opacity="1"><g transform="translate(76.618871, 61.890637)"><g><path d="M 4.375 0.25 C 6.96875 0.25 7.625 -1.484375 7.625 -3.125 C 7.625 -3.515625 5.9375 -3.046875 5.9375 -4.9375 C 5.9375 -7.0625 6.890625 -16.046875 6.890625 -18.25 C 6.890625 -19.5 6.21875 -20.65625 3.984375 -20.65625 L 2.90625 -20.65625 C 2.65625 -20.65625 2.546875 -20.65625 2.453125 -20.5625 C 2.375 -20.484375 2.34375 -20.28125 2.3125 -19.84375 C 1.640625 -7.921875 1.140625 -5.078125 1.140625 -3.71875 C 1.140625 -0.890625 2.09375 0.25 4.375 0.25 Z M 4.375 0.25 "/></g></g></g><g fill="#365162" fill-opacity="1"><g transform="translate(85.04395, 61.890637)"><g><path d="M 7.59375 0.28125 C 10.078125 0.28125 13.0625 -0.59375 13.0625 -2.765625 C 13.0625 -4.4375 11.296875 -4.75 10.9375 -4.75 C 10.15625 -4.75 10.1875 -3.203125 8.234375 -3.203125 C 6.328125 -3.203125 5.578125 -4.625 5.578125 -6.0625 C 7.390625 -6.0625 14.3125 -6.328125 14.3125 -11.4375 C 14.3125 -13.734375 12.953125 -15.625 9.0625 -15.625 C 1.875 -15.625 0.78125 -9.0625 0.78125 -6.25 C 0.78125 -1.171875 4.359375 0.28125 7.59375 0.28125 Z M 8.125 -11.921875 C 9.0625 -11.921875 9.546875 -11.21875 9.546875 -10.46875 C 9.546875 -9.09375 7.953125 -8.3125 5.671875 -8.28125 C 5.859375 -9.875 6.46875 -11.921875 8.125 -11.921875 Z M 8.125 -11.921875 "/></g></g></g><g fill="#365162" fill-opacity="1"><g transform="translate(99.885477, 61.890637)"><g><path d="M 7.640625 -15.625 C 4.578125 -15.625 1.25 -14.28125 1.25 -10.46875 C 1.25 -5.28125 7.375 -6.1875 7.375 -4.078125 C 7.375 -3.296875 6.5 -3.15625 5.578125 -3.15625 C 3.125 -3.15625 2.8125 -4.1875 1.890625 -4.1875 C 0.8125 -4.1875 0.28125 -2.703125 0.28125 -2.0625 C 0.28125 -0.3125 4.109375 0.28125 6.1875 0.28125 C 9.96875 0.28125 11.890625 -1.625 11.890625 -4.296875 C 11.890625 -9.296875 5.25 -8.421875 5.25 -10.75 C 5.25 -11.5 5.9375 -12.0625 6.96875 -12.0625 C 8.515625 -12.0625 8.5625 -10.859375 8.59375 -10.1875 C 8.59375 -9.875 8.734375 -9.796875 9.265625 -9.796875 C 11.1875 -9.796875 12.25 -10.6875 12.25 -12.3125 C 12.25 -14.234375 10.765625 -15.625 7.640625 -15.625 Z M 7.640625 -15.625 "/></g></g></g></svg>